<svg xmlns="http://www.w3.org/2000/svg" width="926" height="1023" viewBox="0 0 926 1023" version="1.1"><path d="M 446.500 170.674 C 371.960 174.349, 300.894 202.232, 244.003 250.124 C 200.356 286.867, 166.830 333.021, 146.006 385.031 C 129.653 425.877, 122.021 466.117, 122.021 511.500 C 122.021 582.200, 140.991 643.701, 181.087 703 C 203.328 735.892, 234.211 767.233, 267.500 790.693 C 311.180 821.476, 363.155 841.774, 418.246 849.563 C 433.481 851.717, 476.278 852.594, 492.733 851.089 C 601.917 841.106, 697.685 781.400, 754.938 687.619 C 757.649 683.178, 758.795 680.395, 758.169 679.769 C 757.636 679.236, 724.192 660.638, 683.850 638.439 C 625.384 606.268, 610.297 598.356, 609.500 599.449 C 608.950 600.203, 605.634 604.909, 602.131 609.907 C 575.213 648.313, 532.169 674.302, 485.199 680.507 C 424.136 688.574, 362.765 662.504, 325.957 612.861 C 311.547 593.426, 301.183 569.857, 295.757 544.183 C 293.788 534.862, 293.505 530.631, 293.539 511 C 293.582 486.263, 294.747 478.169, 301.044 458.836 C 328.101 375.765, 415.134 326.161, 500.048 345.413 C 541.989 354.921, 578.076 379.058, 602.530 413.957 C 605.669 418.436, 608.791 421.966, 609.468 421.800 C 612.705 421.010, 755.980 338.340, 755.989 337.257 C 756.005 335.412, 738.490 309.728, 729.476 298.379 C 718.488 284.543, 686.719 253.163, 673.019 242.610 C 607.136 191.866, 527.785 166.666, 446.500 170.674" stroke="none" fill="#fbfbfb" fill-rule="evenodd"/><path d="M 447.237 1.498 C 444.343 2.305, 440.158 3.843, 437.937 4.916 C 435.716 5.990, 341.131 58.760, 227.748 122.184 C 31.606 231.901, 21.280 237.816, 15.042 244 C 8.152 250.832, 2.998 259.693, 1.085 268 C 0.386 271.037, 0.041 350.084, 0.024 511.068 C 0.002 727.599, 0.149 750.139, 1.612 755.068 C 4.343 764.275, 7.991 770.213, 15.391 777.500 C 22.310 784.313, 28.077 787.627, 231.500 901.662 C 346.450 966.102, 442.975 1019.652, 446 1020.662 C 453.697 1023.234, 472.304 1023.234, 480 1020.662 C 483.025 1019.651, 579.550 966.101, 694.500 901.662 C 897.923 787.626, 903.690 784.313, 910.609 777.500 C 917.823 770.397, 921.740 764.133, 924.056 756 C 924.761 753.525, 925.711 751.073, 926.169 750.550 C 926.626 750.028, 926.993 641.578, 926.985 509.550 C 926.976 376.300, 926.589 270.100, 926.115 270.849 C 925.517 271.791, 925.049 271.074, 924.560 268.470 C 922.625 258.155, 912.193 243.614, 901.836 236.796 C 891.179 229.780, 486.348 4.474, 481 2.582 C 473.701 0, 454.788 -0.607, 447.237 1.498 M 446.500 170.674 C 371.960 174.349, 300.894 202.232, 244.003 250.124 C 200.356 286.867, 166.830 333.021, 146.006 385.031 C 129.653 425.877, 122.021 466.117, 122.021 511.500 C 122.021 582.200, 140.991 643.701, 181.087 703 C 203.328 735.892, 234.211 767.233, 267.500 790.693 C 311.180 821.476, 363.155 841.774, 418.246 849.563 C 433.481 851.717, 476.278 852.594, 492.733 851.089 C 601.917 841.106, 697.685 781.400, 754.938 687.619 C 757.649 683.178, 758.795 680.395, 758.169 679.769 C 757.636 679.236, 724.192 660.638, 683.850 638.439 C 625.384 606.268, 610.297 598.356, 609.500 599.449 C 608.950 600.203, 605.634 604.909, 602.131 609.907 C 575.213 648.313, 532.169 674.302, 485.199 680.507 C 424.136 688.574, 362.765 662.504, 325.957 612.861 C 311.547 593.426, 301.183 569.857, 295.757 544.183 C 293.788 534.862, 293.505 530.631, 293.539 511 C 293.582 486.263, 294.747 478.169, 301.044 458.836 C 328.101 375.765, 415.134 326.161, 500.048 345.413 C 541.989 354.921, 578.076 379.058, 602.530 413.957 C 605.669 418.436, 608.791 421.966, 609.468 421.800 C 612.705 421.010, 755.980 338.340, 755.989 337.257 C 756.005 335.412, 738.490 309.728, 729.476 298.379 C 718.488 284.543, 686.719 253.163, 673.019 242.610 C 607.136 191.866, 527.785 166.666, 446.500 170.674 M 0.492 511 C 0.492 643.275, 0.608 697.387, 0.750 631.250 C 0.892 565.112, 0.892 456.887, 0.750 390.750 C 0.608 324.612, 0.492 378.725, 0.492 511" stroke="none" fill="#2e71ad" fill-rule="evenodd"/></svg>